<?xml version="1.0" encoding="UTF-8" standalone="no"?>
<!DOCTYPE svg PUBLIC "-//W3C//DTD SVG 1.1//EN"
 "http://www.w3.org/Graphics/SVG/1.1/DTD/svg11.dtd">
<!-- Generated by graphviz version 14.1.1 (20251213.1925)
 -->
<!-- Title: dependencies Pages: 1 -->
<svg width="324pt" height="293pt"
 viewBox="0.00 0.00 324.00 293.00" xmlns="http://www.w3.org/2000/svg" xmlns:xlink="http://www.w3.org/1999/xlink">
<g id="graph0" class="graph" transform="scale(1 1) rotate(0) translate(4 289)">
<title>dependencies</title>
<polygon fill="white" stroke="none" points="-4,4 -4,-289 320,-289 320,4 -4,4"/>
<text xml:space="preserve" text-anchor="middle" x="158" y="-267.7" font-family="Times,serif" font-size="14.00">Monorepo Dependency Graph</text>
<text xml:space="preserve" text-anchor="middle" x="158" y="-235.2" font-family="Times,serif" font-size="14.00">TopLevelOne binary depends on LowLevelOne library</text>
<!-- top&#45;level&#45;1:TopLevelOne -->
<g id="node1" class="node">
<title>top&#45;level&#45;1:TopLevelOne</title>
<polygon fill="#e1f5ff" stroke="black" points="214.94,-228 123.94,-228 123.94,-187 214.94,-187 214.94,-228"/>
<text xml:space="preserve" text-anchor="middle" x="169.44" y="-210.7" font-family="Times,serif" font-size="14.00">TopLevelOne</text>
<text xml:space="preserve" text-anchor="middle" x="169.44" y="-194.2" font-family="Times,serif" font-size="14.00">(java_binary)</text>
</g>
<!-- low&#45;level&#45;1:LowLevelOne -->
<g id="node2" class="node">
<title>low&#45;level&#45;1:LowLevelOne</title>
<polygon fill="#fff4e1" stroke="black" points="165.44,-134.5 71.44,-134.5 71.44,-93.5 165.44,-93.5 165.44,-134.5"/>
<text xml:space="preserve" text-anchor="middle" x="118.44" y="-117.2" font-family="Times,serif" font-size="14.00">LowLevelOne</text>
<text xml:space="preserve" text-anchor="middle" x="118.44" y="-100.7" font-family="Times,serif" font-size="14.00">(java_library)</text>
</g>
<!-- top&#45;level&#45;1:TopLevelOne&#45;&gt;low&#45;level&#45;1:LowLevelOne -->
<g id="edge1" class="edge">
<title>top&#45;level&#45;1:TopLevelOne&#45;&gt;low&#45;level&#45;1:LowLevelOne</title>
<path fill="none" stroke="#2196f3" stroke-width="2" d="M149.69,-186.56C145.06,-181.17 140.46,-175.12 136.94,-169 133.06,-162.26 129.82,-154.58 127.19,-147.17"/>
<polygon fill="#2196f3" stroke="#2196f3" stroke-width="2" points="130.53,-146.11 124.15,-137.65 123.86,-148.24 130.53,-146.11"/>
<text xml:space="preserve" text-anchor="middle" x="167.69" y="-155.7" font-family="Times,serif" font-size="14.00">depends on</text>
</g>
<!-- Main.java -->
<g id="node3" class="node">
<title>Main.java</title>
<polygon fill="#f0f0f0" stroke="black" points="250.94,-134.5 183.94,-134.5 183.94,-93.5 256.94,-93.5 256.94,-128.5 250.94,-134.5"/>
<polyline fill="none" stroke="black" points="250.94,-134.5 250.94,-128.5"/>
<polyline fill="none" stroke="black" points="256.94,-128.5 250.94,-128.5"/>
<text xml:space="preserve" text-anchor="middle" x="220.44" y="-117.2" font-family="Times,serif" font-size="14.00">Main.java</text>
<text xml:space="preserve" text-anchor="middle" x="220.44" y="-100.7" font-family="Times,serif" font-size="14.00">(top&#45;level)</text>
</g>
<!-- top&#45;level&#45;1:TopLevelOne&#45;&gt;Main.java -->
<g id="edge2" class="edge">
<title>top&#45;level&#45;1:TopLevelOne&#45;&gt;Main.java</title>
<path fill="none" stroke="black" stroke-dasharray="5,2" d="M186.45,-186.58C190.68,-181.09 194.99,-174.99 198.44,-169 202.66,-161.67 206.47,-153.36 209.69,-145.51"/>
<polygon fill="black" stroke="black" points="212.93,-146.84 213.28,-136.26 206.4,-144.31 212.93,-146.84"/>
<text xml:space="preserve" text-anchor="middle" x="231.11" y="-155.7" font-family="Times,serif" font-size="14.00">compiles</text>
</g>
<!-- LowOneMain.java -->
<g id="node4" class="node">
<title>LowOneMain.java</title>
<polygon fill="#f0f0f0" stroke="black" points="171.81,-41 59.06,-41 59.06,0 177.81,0 177.81,-35 171.81,-41"/>
<polyline fill="none" stroke="black" points="171.81,-41 171.81,-35"/>
<polyline fill="none" stroke="black" points="177.81,-35 171.81,-35"/>
<text xml:space="preserve" text-anchor="middle" x="118.44" y="-23.7" font-family="Times,serif" font-size="14.00">LowOneMain.java</text>
<text xml:space="preserve" text-anchor="middle" x="118.44" y="-7.2" font-family="Times,serif" font-size="14.00">(low&#45;level)</text>
</g>
<!-- low&#45;level&#45;1:LowLevelOne&#45;&gt;LowOneMain.java -->
<g id="edge3" class="edge">
<title>low&#45;level&#45;1:LowLevelOne&#45;&gt;LowOneMain.java</title>
<path fill="none" stroke="black" stroke-dasharray="5,2" d="M118.44,-93.15C118.44,-81.28 118.44,-65.94 118.44,-52.5"/>
<polygon fill="black" stroke="black" points="121.94,-52.83 118.44,-42.83 114.94,-52.83 121.94,-52.83"/>
<text xml:space="preserve" text-anchor="middle" x="143.19" y="-62.2" font-family="Times,serif" font-size="14.00">compiles</text>
</g>
</g>
</svg>
